{
	"asset":{
		"generator":"Khronos glTF Blender I/O v4.2.69",
		"version":"2.0"
	},
	"extensionsUsed":[
		"KHR_materials_unlit"
	],
	"scene":0,
	"scenes":[
		{
			"name":"Scene",
			"nodes":[
				0
			]
		}
	],
	"nodes":[
		{
			"mesh":0,
			"name":"Plane.004",
			"rotation":[
				0,
				0,
				-0.7071068286895752,
				0.7071068286895752
			],
			"scale":[
				0.2325468361377716,
				0.16975358128547668,
				0.2325468361377716
			],
			"translation":[
				12.543977737426758,
				0.2975807785987854,
				-0.007715895771980286
			]
		}
	],
	"materials":[
		{
			"doubleSided":true,
			"extensions":{
				"KHR_materials_unlit":{}
			},
			"name":"marble.023",
			"pbrMetallicRoughness":{
				"baseColorTexture":{
					"index":0
				},
				"metallicFactor":0,
				"roughnessFactor":0.9
			}
		}
	],
	"meshes":[
		{
			"name":"Plane.006",
			"primitives":[
				{
					"attributes":{
						"POSITION":0,
						"NORMAL":1,
						"TEXCOORD_0":2
					},
					"indices":3,
					"material":0
				}
			]
		}
	],
	"textures":[
		{
			"sampler":0,
			"source":0
		}
	],
	"images":[
		{
			"mimeType":"image/png",
			"name":"marble_texture",
			"uri":"textures/marble_texture.png"
		}
	],
	"accessors":[
		{
			"bufferView":0,
			"componentType":5126,
			"count":14501,
			"max":[
				1.8892443180084229,
				1.947546362876892,
				6.377170085906982
			],
			"min":[
				-12.771923065185547,
				-1.947546362876892,
				-6.310818672180176
			],
			"type":"VEC3"
		},
		{
			"bufferView":1,
			"componentType":5126,
			"count":14501,
			"type":"VEC3"
		},
		{
			"bufferView":2,
			"componentType":5126,
			"count":14501,
			"type":"VEC2"
		},
		{
			"bufferView":3,
			"componentType":5123,
			"count":81060,
			"type":"SCALAR"
		}
	],
	"bufferViews":[
		{
			"buffer":0,
			"byteLength":174012,
			"byteOffset":0,
			"target":34962
		},
		{
			"buffer":0,
			"byteLength":174012,
			"byteOffset":174012,
			"target":34962
		},
		{
			"buffer":0,
			"byteLength":116008,
			"byteOffset":348024,
			"target":34962
		},
		{
			"buffer":0,
			"byteLength":162120,
			"byteOffset":464032,
			"target":34963
		}
	],
	"samplers":[
		{
			"magFilter":9729,
			"minFilter":9987
		}
	],
	"buffers":[
		{
			"byteLength":626152,
			"uri":"headstone.bin"
		}
	]
}
